# xmcd
#
# Track frame offsets: 
#        150
#        18905
#        42425
#        51090
#
# Disc length: 855 seconds
#
# Revision: 3
# Processed by: cddbd v1.5.2PL0 Copyright (c) Steve Scherf et al.
# Submitted via: ExactAudioCopyFreeDBPlugin 1.0
#
DISCID=2a035504
DTITLE=藤原さくら - Soup
DYEAR=2016
DGENRE=J-Pop
TTITLE0=Soup
TTITLE1=好きよ 好きよ 好きよ
TTITLE2=Summertime (佐野さくら with 神代広平 Ver_)
TTITLE3=500マイル (佐野さくら with 神代広平 Ver_)
EXTD=YEAR: 2016
EXTT0=
EXTT1=
EXTT2=
EXTT3=
PLAYORDER=
